<svg width="1480" height="1078" viewBox="0 0 1480 1078" fill="none" xmlns="http://www.w3.org/2000/svg">
<g filter="url(#filter0_dddiiiii_3718_10149)">
<path d="M416.332 242.456C442.914 231.445 470.797 224.079 499.225 220.507C521.232 217.741 539.281 235.98 539.281 258.16V416.79C539.281 417.901 540.181 418.801 541.291 418.801V418.801C542.11 418.801 542.847 418.303 543.157 417.545C543.323 417.141 543.49 416.736 543.657 416.332C559.803 377.352 583.468 341.935 613.302 312.101C643.135 282.267 678.553 258.602 717.533 242.456C744.115 231.445 771.998 224.079 800.426 220.507C822.433 217.741 840.482 235.98 840.482 258.16V416.79C840.482 417.901 841.382 418.801 842.492 418.801V418.801C843.311 418.801 844.048 418.303 844.358 417.545C844.524 417.141 844.69 416.736 844.858 416.332C861.004 377.352 884.669 341.935 914.503 312.101C944.336 282.267 979.754 258.602 1018.73 242.456C1045.32 231.445 1073.2 224.079 1101.63 220.507C1123.63 217.741 1141.68 235.98 1141.68 258.16V499.121C1141.68 521.301 1159.66 539.281 1181.84 539.281H1222C1244.18 539.281 1262.42 557.33 1259.66 579.337C1256.08 607.765 1248.72 635.648 1237.71 662.23C1221.56 701.209 1197.9 736.627 1168.06 766.461C1138.23 796.294 1102.81 819.96 1063.83 836.106C1037.25 847.116 1009.37 854.483 980.938 858.055C958.931 860.82 940.882 842.582 940.882 820.402V661.771C940.882 660.661 939.982 659.761 938.872 659.761V659.761C938.053 659.761 937.316 660.258 937.006 661.017C936.84 661.421 936.673 661.826 936.506 662.23C920.36 701.209 896.695 736.627 866.861 766.461C837.027 796.294 801.61 819.96 762.63 836.106C736.048 847.116 708.165 854.483 679.737 858.055C657.73 860.82 639.681 842.582 639.681 820.402V661.771C639.681 660.661 638.781 659.761 637.671 659.761V659.761C636.852 659.761 636.115 660.258 635.805 661.017C635.639 661.421 635.472 661.826 635.305 662.23C619.159 701.209 595.494 736.627 565.66 766.461C535.826 796.294 500.409 819.96 461.429 836.106C434.848 847.116 406.964 854.483 378.536 858.055C356.53 860.82 338.48 842.582 338.48 820.402V579.441C338.48 557.261 320.5 539.281 298.32 539.281H258.16C235.98 539.281 217.741 521.232 220.507 499.225C224.079 470.797 231.445 442.914 242.456 416.332C258.602 377.352 282.267 341.935 312.101 312.101C341.935 282.267 377.352 258.602 416.332 242.456Z" fill="#1F1F1F" style="fill:#1F1F1F;fill:color(display-p3 0.1216 0.1216 0.1216);fill-opacity:1;"/>
<path d="M416.332 242.456C442.914 231.445 470.797 224.079 499.225 220.507C521.232 217.741 539.281 235.98 539.281 258.16V416.79C539.281 417.901 540.181 418.801 541.291 418.801V418.801C542.11 418.801 542.847 418.303 543.157 417.545C543.323 417.141 543.49 416.736 543.657 416.332C559.803 377.352 583.468 341.935 613.302 312.101C643.135 282.267 678.553 258.602 717.533 242.456C744.115 231.445 771.998 224.079 800.426 220.507C822.433 217.741 840.482 235.98 840.482 258.16V416.79C840.482 417.901 841.382 418.801 842.492 418.801V418.801C843.311 418.801 844.048 418.303 844.358 417.545C844.524 417.141 844.69 416.736 844.858 416.332C861.004 377.352 884.669 341.935 914.503 312.101C944.336 282.267 979.754 258.602 1018.73 242.456C1045.32 231.445 1073.2 224.079 1101.63 220.507C1123.63 217.741 1141.68 235.98 1141.68 258.16V499.121C1141.68 521.301 1159.66 539.281 1181.84 539.281H1222C1244.18 539.281 1262.42 557.33 1259.66 579.337C1256.08 607.765 1248.72 635.648 1237.71 662.23C1221.56 701.209 1197.9 736.627 1168.06 766.461C1138.23 796.294 1102.81 819.96 1063.83 836.106C1037.25 847.116 1009.37 854.483 980.938 858.055C958.931 860.82 940.882 842.582 940.882 820.402V661.771C940.882 660.661 939.982 659.761 938.872 659.761V659.761C938.053 659.761 937.316 660.258 937.006 661.017C936.84 661.421 936.673 661.826 936.506 662.23C920.36 701.209 896.695 736.627 866.861 766.461C837.027 796.294 801.61 819.96 762.63 836.106C736.048 847.116 708.165 854.483 679.737 858.055C657.73 860.82 639.681 842.582 639.681 820.402V661.771C639.681 660.661 638.781 659.761 637.671 659.761V659.761C636.852 659.761 636.115 660.258 635.805 661.017C635.639 661.421 635.472 661.826 635.305 662.23C619.159 701.209 595.494 736.627 565.66 766.461C535.826 796.294 500.409 819.96 461.429 836.106C434.848 847.116 406.964 854.483 378.536 858.055C356.53 860.82 338.48 842.582 338.48 820.402V579.441C338.48 557.261 320.5 539.281 298.32 539.281H258.16C235.98 539.281 217.741 521.232 220.507 499.225C224.079 470.797 231.445 442.914 242.456 416.332C258.602 377.352 282.267 341.935 312.101 312.101C341.935 282.267 377.352 258.602 416.332 242.456Z" fill="#FEFEFE" style="fill:#FEFEFE;fill:color(display-p3 0.9961 0.9961 0.9961);fill-opacity:1;"/>
</g>
<defs>
<filter id="filter0_dddiiiii_3718_10149" x="0.809261" y="0.809261" width="1478.54" height="1076.94" filterUnits="userSpaceOnUse" color-interpolation-filters="sRGB">
<feFlood flood-opacity="0" result="BackgroundImageFix"/>
<feColorMatrix in="SourceAlpha" type="matrix" values="0 0 0 0 0 0 0 0 0 0 0 0 0 0 0 0 0 0 127 0" result="hardAlpha"/>
<feMorphology radius="22.1885" operator="dilate" in="SourceAlpha" result="effect1_dropShadow_3718_10149"/>
<feOffset/>
<feGaussianBlur stdDeviation="98.6154"/>
<feComposite in2="hardAlpha" operator="out"/>
<feColorMatrix type="matrix" values="0 0 0 0 0.246026 0 0 0 0 0.221684 0 0 0 0 0.470833 0 0 0 0.05 0"/>
<feBlend mode="normal" in2="BackgroundImageFix" result="effect1_dropShadow_3718_10149"/>
<feColorMatrix in="SourceAlpha" type="matrix" values="0 0 0 0 0 0 0 0 0 0 0 0 0 0 0 0 0 0 127 0" result="hardAlpha"/>
<feMorphology radius="5.75256" operator="dilate" in="SourceAlpha" result="effect2_dropShadow_3718_10149"/>
<feOffset dy="11.5051"/>
<feGaussianBlur stdDeviation="5.75256"/>
<feComposite in2="hardAlpha" operator="out"/>
<feColorMatrix type="matrix" values="0 0 0 0 0.933333 0 0 0 0 0.933333 0 0 0 0 0.933333 0 0 0 0.6 0"/>
<feBlend mode="normal" in2="effect1_dropShadow_3718_10149" result="effect2_dropShadow_3718_10149"/>
<feColorMatrix in="SourceAlpha" type="matrix" values="0 0 0 0 0 0 0 0 0 0 0 0 0 0 0 0 0 0 127 0" result="hardAlpha"/>
<feMorphology radius="5.75256" operator="dilate" in="SourceAlpha" result="effect3_dropShadow_3718_10149"/>
<feOffset dy="11.5051"/>
<feGaussianBlur stdDeviation="12.3269"/>
<feComposite in2="hardAlpha" operator="out"/>
<feColorMatrix type="matrix" values="0 0 0 0 0.849247 0 0 0 0 0.84375 0 0 0 0 0.9 0 0 0 0.6 0"/>
<feBlend mode="normal" in2="effect2_dropShadow_3718_10149" result="effect3_dropShadow_3718_10149"/>
<feBlend mode="normal" in="SourceGraphic" in2="effect3_dropShadow_3718_10149" result="shape"/>
<feColorMatrix in="SourceAlpha" type="matrix" values="0 0 0 0 0 0 0 0 0 0 0 0 0 0 0 0 0 0 127 0" result="hardAlpha"/>
<feOffset dy="-9.86154"/>
<feGaussianBlur stdDeviation="7.39615"/>
<feComposite in2="hardAlpha" operator="arithmetic" k2="-1" k3="1"/>
<feColorMatrix type="matrix" values="0 0 0 0 1 0 0 0 0 1 0 0 0 0 1 0 0 0 1 0"/>
<feBlend mode="normal" in2="shape" result="effect4_innerShadow_3718_10149"/>
<feColorMatrix in="SourceAlpha" type="matrix" values="0 0 0 0 0 0 0 0 0 0 0 0 0 0 0 0 0 0 127 0" result="hardAlpha"/>
<feOffset dy="-9.86154"/>
<feGaussianBlur stdDeviation="7.39615"/>
<feComposite in2="hardAlpha" operator="arithmetic" k2="-1" k3="1"/>
<feColorMatrix type="matrix" values="0 0 0 0 1 0 0 0 0 1 0 0 0 0 1 0 0 0 1 0"/>
<feBlend mode="normal" in2="effect4_innerShadow_3718_10149" result="effect5_innerShadow_3718_10149"/>
<feColorMatrix in="SourceAlpha" type="matrix" values="0 0 0 0 0 0 0 0 0 0 0 0 0 0 0 0 0 0 127 0" result="hardAlpha"/>
<feOffset dy="-9.86154"/>
<feGaussianBlur stdDeviation="7.39615"/>
<feComposite in2="hardAlpha" operator="arithmetic" k2="-1" k3="1"/>
<feColorMatrix type="matrix" values="0 0 0 0 1 0 0 0 0 1 0 0 0 0 1 0 0 0 1 0"/>
<feBlend mode="normal" in2="effect5_innerShadow_3718_10149" result="effect6_innerShadow_3718_10149"/>
<feColorMatrix in="SourceAlpha" type="matrix" values="0 0 0 0 0 0 0 0 0 0 0 0 0 0 0 0 0 0 127 0" result="hardAlpha"/>
<feOffset dy="-9.86154"/>
<feGaussianBlur stdDeviation="7.39615"/>
<feComposite in2="hardAlpha" operator="arithmetic" k2="-1" k3="1"/>
<feColorMatrix type="matrix" values="0 0 0 0 1 0 0 0 0 1 0 0 0 0 1 0 0 0 1 0"/>
<feBlend mode="normal" in2="effect6_innerShadow_3718_10149" result="effect7_innerShadow_3718_10149"/>
<feColorMatrix in="SourceAlpha" type="matrix" values="0 0 0 0 0 0 0 0 0 0 0 0 0 0 0 0 0 0 127 0" result="hardAlpha"/>
<feOffset dy="-9.86154"/>
<feGaussianBlur stdDeviation="7.39615"/>
<feComposite in2="hardAlpha" operator="arithmetic" k2="-1" k3="1"/>
<feColorMatrix type="matrix" values="0 0 0 0 1 0 0 0 0 1 0 0 0 0 1 0 0 0 1 0"/>
<feBlend mode="normal" in2="effect7_innerShadow_3718_10149" result="effect8_innerShadow_3718_10149"/>
</filter>
</defs>
</svg>
