<svg width="1480" height="1077" viewBox="0 0 1480 1077" fill="none" xmlns="http://www.w3.org/2000/svg">
<g filter="url(#filter0_dddiiiii_3718_10143)">
<path d="M416.332 241.64C442.914 230.629 470.797 223.263 499.225 219.69C521.232 216.925 539.281 235.164 539.281 257.344V415.974C539.281 417.084 540.181 417.984 541.291 417.984V417.984C542.11 417.984 542.847 417.487 543.157 416.729C543.323 416.324 543.49 415.92 543.657 415.516C559.803 376.536 583.468 341.118 613.302 311.285C643.135 281.451 678.553 257.786 717.533 241.64C744.115 230.629 771.998 223.263 800.426 219.69C822.433 216.925 840.482 235.164 840.482 257.344V415.974C840.482 417.084 841.382 417.984 842.492 417.984V417.984C843.311 417.984 844.048 417.487 844.358 416.729C844.524 416.324 844.69 415.92 844.858 415.516C861.004 376.536 884.669 341.118 914.503 311.285C944.336 281.451 979.754 257.786 1018.73 241.64C1045.32 230.629 1073.2 223.263 1101.63 219.69C1123.63 216.925 1141.68 235.164 1141.68 257.344V498.304C1141.68 520.484 1159.66 538.464 1181.84 538.464H1222C1244.18 538.464 1262.42 556.514 1259.66 578.52C1256.08 606.948 1248.72 634.832 1237.71 661.413C1221.56 700.393 1197.9 735.811 1168.06 765.644C1138.23 795.478 1102.81 819.143 1063.83 835.289C1037.25 846.3 1009.37 853.666 980.938 857.239C958.931 860.004 940.882 841.765 940.882 819.585V660.955C940.882 659.845 939.982 658.945 938.872 658.945V658.945C938.053 658.945 937.316 659.442 937.006 660.2C936.84 660.605 936.673 661.009 936.506 661.413C920.36 700.393 896.695 735.811 866.861 765.644C837.027 795.478 801.61 819.143 762.63 835.289C736.048 846.3 708.165 853.666 679.737 857.239C657.73 860.004 639.681 841.765 639.681 819.585V660.955C639.681 659.845 638.781 658.945 637.671 658.945V658.945C636.852 658.945 636.115 659.442 635.805 660.2C635.639 660.605 635.472 661.009 635.305 661.413C619.159 700.393 595.494 735.811 565.66 765.644C535.826 795.478 500.409 819.143 461.429 835.289C434.848 846.3 406.964 853.666 378.536 857.239C356.53 860.004 338.48 841.765 338.48 819.585V578.625C338.48 556.445 320.5 538.464 298.32 538.464H258.16C235.98 538.464 217.741 520.415 220.507 498.409C224.079 469.98 231.445 442.097 242.456 415.516C258.602 376.536 282.267 341.118 312.101 311.285C341.935 281.451 377.352 257.786 416.332 241.64Z" fill="#1F1F1F" style="fill:#1F1F1F;fill:color(display-p3 0.1216 0.1216 0.1216);fill-opacity:1;"/>
<path d="M416.332 241.64C442.914 230.629 470.797 223.263 499.225 219.69C521.232 216.925 539.281 235.164 539.281 257.344V415.974C539.281 417.084 540.181 417.984 541.291 417.984V417.984C542.11 417.984 542.847 417.487 543.157 416.729C543.323 416.324 543.49 415.92 543.657 415.516C559.803 376.536 583.468 341.118 613.302 311.285C643.135 281.451 678.553 257.786 717.533 241.64C744.115 230.629 771.998 223.263 800.426 219.69C822.433 216.925 840.482 235.164 840.482 257.344V415.974C840.482 417.084 841.382 417.984 842.492 417.984V417.984C843.311 417.984 844.048 417.487 844.358 416.729C844.524 416.324 844.69 415.92 844.858 415.516C861.004 376.536 884.669 341.118 914.503 311.285C944.336 281.451 979.754 257.786 1018.73 241.64C1045.32 230.629 1073.2 223.263 1101.63 219.69C1123.63 216.925 1141.68 235.164 1141.68 257.344V498.304C1141.68 520.484 1159.66 538.464 1181.84 538.464H1222C1244.18 538.464 1262.42 556.514 1259.66 578.52C1256.08 606.948 1248.72 634.832 1237.71 661.413C1221.56 700.393 1197.9 735.811 1168.06 765.644C1138.23 795.478 1102.81 819.143 1063.83 835.289C1037.25 846.3 1009.37 853.666 980.938 857.239C958.931 860.004 940.882 841.765 940.882 819.585V660.955C940.882 659.845 939.982 658.945 938.872 658.945V658.945C938.053 658.945 937.316 659.442 937.006 660.2C936.84 660.605 936.673 661.009 936.506 661.413C920.36 700.393 896.695 735.811 866.861 765.644C837.027 795.478 801.61 819.143 762.63 835.289C736.048 846.3 708.165 853.666 679.737 857.239C657.73 860.004 639.681 841.765 639.681 819.585V660.955C639.681 659.845 638.781 658.945 637.671 658.945V658.945C636.852 658.945 636.115 659.442 635.805 660.2C635.639 660.605 635.472 661.009 635.305 661.413C619.159 700.393 595.494 735.811 565.66 765.644C535.826 795.478 500.409 819.143 461.429 835.289C434.848 846.3 406.964 853.666 378.536 857.239C356.53 860.004 338.48 841.765 338.48 819.585V578.625C338.48 556.445 320.5 538.464 298.32 538.464H258.16C235.98 538.464 217.741 520.415 220.507 498.409C224.079 469.98 231.445 442.097 242.456 415.516C258.602 376.536 282.267 341.118 312.101 311.285C341.935 281.451 377.352 257.786 416.332 241.64Z" fill="#FEFEFE" style="fill:#FEFEFE;fill:color(display-p3 0.9961 0.9961 0.9961);fill-opacity:1;"/>
</g>
<defs>
<filter id="filter0_dddiiiii_3718_10143" x="0.809261" y="-0.00714493" width="1478.54" height="1076.94" filterUnits="userSpaceOnUse" color-interpolation-filters="sRGB">
<feFlood flood-opacity="0" result="BackgroundImageFix"/>
<feColorMatrix in="SourceAlpha" type="matrix" values="0 0 0 0 0 0 0 0 0 0 0 0 0 0 0 0 0 0 127 0" result="hardAlpha"/>
<feMorphology radius="22.1885" operator="dilate" in="SourceAlpha" result="effect1_dropShadow_3718_10143"/>
<feOffset/>
<feGaussianBlur stdDeviation="98.6154"/>
<feComposite in2="hardAlpha" operator="out"/>
<feColorMatrix type="matrix" values="0 0 0 0 0.246026 0 0 0 0 0.221684 0 0 0 0 0.470833 0 0 0 0.05 0"/>
<feBlend mode="normal" in2="BackgroundImageFix" result="effect1_dropShadow_3718_10143"/>
<feColorMatrix in="SourceAlpha" type="matrix" values="0 0 0 0 0 0 0 0 0 0 0 0 0 0 0 0 0 0 127 0" result="hardAlpha"/>
<feMorphology radius="5.75256" operator="dilate" in="SourceAlpha" result="effect2_dropShadow_3718_10143"/>
<feOffset dy="11.5051"/>
<feGaussianBlur stdDeviation="5.75256"/>
<feComposite in2="hardAlpha" operator="out"/>
<feColorMatrix type="matrix" values="0 0 0 0 0.933333 0 0 0 0 0.933333 0 0 0 0 0.933333 0 0 0 0.6 0"/>
<feBlend mode="normal" in2="effect1_dropShadow_3718_10143" result="effect2_dropShadow_3718_10143"/>
<feColorMatrix in="SourceAlpha" type="matrix" values="0 0 0 0 0 0 0 0 0 0 0 0 0 0 0 0 0 0 127 0" result="hardAlpha"/>
<feMorphology radius="5.75256" operator="dilate" in="SourceAlpha" result="effect3_dropShadow_3718_10143"/>
<feOffset dy="11.5051"/>
<feGaussianBlur stdDeviation="12.3269"/>
<feComposite in2="hardAlpha" operator="out"/>
<feColorMatrix type="matrix" values="0 0 0 0 0.849247 0 0 0 0 0.84375 0 0 0 0 0.9 0 0 0 0.6 0"/>
<feBlend mode="normal" in2="effect2_dropShadow_3718_10143" result="effect3_dropShadow_3718_10143"/>
<feBlend mode="normal" in="SourceGraphic" in2="effect3_dropShadow_3718_10143" result="shape"/>
<feColorMatrix in="SourceAlpha" type="matrix" values="0 0 0 0 0 0 0 0 0 0 0 0 0 0 0 0 0 0 127 0" result="hardAlpha"/>
<feOffset dy="-9.86154"/>
<feGaussianBlur stdDeviation="7.39615"/>
<feComposite in2="hardAlpha" operator="arithmetic" k2="-1" k3="1"/>
<feColorMatrix type="matrix" values="0 0 0 0 1 0 0 0 0 1 0 0 0 0 1 0 0 0 1 0"/>
<feBlend mode="normal" in2="shape" result="effect4_innerShadow_3718_10143"/>
<feColorMatrix in="SourceAlpha" type="matrix" values="0 0 0 0 0 0 0 0 0 0 0 0 0 0 0 0 0 0 127 0" result="hardAlpha"/>
<feOffset dy="-9.86154"/>
<feGaussianBlur stdDeviation="7.39615"/>
<feComposite in2="hardAlpha" operator="arithmetic" k2="-1" k3="1"/>
<feColorMatrix type="matrix" values="0 0 0 0 1 0 0 0 0 1 0 0 0 0 1 0 0 0 1 0"/>
<feBlend mode="normal" in2="effect4_innerShadow_3718_10143" result="effect5_innerShadow_3718_10143"/>
<feColorMatrix in="SourceAlpha" type="matrix" values="0 0 0 0 0 0 0 0 0 0 0 0 0 0 0 0 0 0 127 0" result="hardAlpha"/>
<feOffset dy="-9.86154"/>
<feGaussianBlur stdDeviation="7.39615"/>
<feComposite in2="hardAlpha" operator="arithmetic" k2="-1" k3="1"/>
<feColorMatrix type="matrix" values="0 0 0 0 1 0 0 0 0 1 0 0 0 0 1 0 0 0 1 0"/>
<feBlend mode="normal" in2="effect5_innerShadow_3718_10143" result="effect6_innerShadow_3718_10143"/>
<feColorMatrix in="SourceAlpha" type="matrix" values="0 0 0 0 0 0 0 0 0 0 0 0 0 0 0 0 0 0 127 0" result="hardAlpha"/>
<feOffset dy="-9.86154"/>
<feGaussianBlur stdDeviation="7.39615"/>
<feComposite in2="hardAlpha" operator="arithmetic" k2="-1" k3="1"/>
<feColorMatrix type="matrix" values="0 0 0 0 1 0 0 0 0 1 0 0 0 0 1 0 0 0 1 0"/>
<feBlend mode="normal" in2="effect6_innerShadow_3718_10143" result="effect7_innerShadow_3718_10143"/>
<feColorMatrix in="SourceAlpha" type="matrix" values="0 0 0 0 0 0 0 0 0 0 0 0 0 0 0 0 0 0 127 0" result="hardAlpha"/>
<feOffset dy="-9.86154"/>
<feGaussianBlur stdDeviation="7.39615"/>
<feComposite in2="hardAlpha" operator="arithmetic" k2="-1" k3="1"/>
<feColorMatrix type="matrix" values="0 0 0 0 1 0 0 0 0 1 0 0 0 0 1 0 0 0 1 0"/>
<feBlend mode="normal" in2="effect7_innerShadow_3718_10143" result="effect8_innerShadow_3718_10143"/>
</filter>
</defs>
</svg>
