<svg width="847" height="863" viewBox="0 0 847 863" fill="none" xmlns="http://www.w3.org/2000/svg">
<g filter="url(#filter0_ddii_3780_7075)">
<path d="M347.706 99.3225C374.527 88.2131 402.82 81.2256 431.625 78.5507C446.348 77.1836 458.36 89.299 458.36 104.086V256.223C458.36 257.223 459.17 258.033 460.17 258.033C460.907 258.033 461.57 257.585 461.849 256.903C461.998 256.539 462.148 256.175 462.299 255.811C476.83 220.729 498.129 188.853 524.979 162.003C551.829 135.153 583.706 113.854 618.787 99.3225C645.608 88.2131 673.9 81.2256 702.706 78.5507C717.429 77.1836 729.441 89.299 729.441 104.086V256.223C729.441 257.223 730.251 258.033 731.25 258.033C731.988 258.033 732.651 257.585 732.93 256.903C733.079 256.539 733.229 256.175 733.38 255.811C747.911 220.729 769.21 188.853 796.06 162.003C822.91 135.153 854.786 113.854 889.868 99.3225C916.688 88.2131 944.981 81.2256 973.786 78.5507C988.51 77.1836 1000.52 89.299 1000.52 104.086V339.692C1000.52 354.478 1012.51 366.465 1027.3 366.465H1082.18C1096.97 366.465 1109.08 378.477 1107.72 393.2C1105.04 422.006 1098.05 450.298 1086.94 477.119C1072.41 512.201 1051.11 544.077 1024.26 570.927C997.413 597.777 965.537 619.076 930.456 633.607C903.635 644.717 875.342 651.704 846.537 654.379C831.814 655.746 819.801 643.631 819.801 628.844V476.706C819.801 475.707 818.991 474.897 817.992 474.897C817.255 474.897 816.592 475.345 816.313 476.027C816.164 476.391 816.014 476.755 815.863 477.119C801.332 512.201 780.033 544.077 753.183 570.927C726.332 597.777 694.456 619.076 659.375 633.607C632.554 644.717 604.262 651.704 575.456 654.379C560.733 655.746 548.721 643.631 548.721 628.844V476.706C548.721 475.707 547.911 474.897 546.912 474.897C546.174 474.897 545.511 475.345 545.232 476.027C545.083 476.391 544.933 476.755 544.782 477.119C530.251 512.201 508.952 544.077 482.102 570.927C455.251 597.777 423.376 619.076 388.294 633.607C361.473 644.717 333.181 651.704 304.375 654.379C289.652 655.746 277.64 643.631 277.64 628.844V393.238C277.64 378.452 265.653 366.465 250.867 366.465H195.981C181.194 366.465 169.079 354.453 170.446 339.729C173.121 310.924 180.109 282.631 191.218 255.811C205.749 220.729 227.048 188.853 253.899 162.003C280.749 135.153 312.625 113.854 347.706 99.3225Z" fill="url(#paint0_linear_3780_7075)" style=""/>
</g>
<defs>
<filter id="filter0_ddii_3780_7075" x="0.229269" y="0.785688" width="1277.7" height="916.262" filterUnits="userSpaceOnUse" color-interpolation-filters="sRGB">
<feFlood flood-opacity="0" result="BackgroundImageFix"/>
<feColorMatrix in="SourceAlpha" type="matrix" values="0 0 0 0 0 0 0 0 0 0 0 0 0 0 0 0 0 0 127 0" result="hardAlpha"/>
<feMorphology radius="19.7231" operator="dilate" in="SourceAlpha" result="effect1_dropShadow_3780_7075"/>
<feOffset dy="92.4519"/>
<feGaussianBlur stdDeviation="75.1942"/>
<feComposite in2="hardAlpha" operator="out"/>
<feColorMatrix type="matrix" values="0 0 0 0 0.246026 0 0 0 0 0.221684 0 0 0 0 0.470833 0 0 0 0.1 0"/>
<feBlend mode="normal" in2="BackgroundImageFix" result="effect1_dropShadow_3780_7075"/>
<feColorMatrix in="SourceAlpha" type="matrix" values="0 0 0 0 0 0 0 0 0 0 0 0 0 0 0 0 0 0 127 0" result="hardAlpha"/>
<feMorphology radius="2.46538" operator="dilate" in="SourceAlpha" result="effect2_dropShadow_3780_7075"/>
<feOffset dy="2.46538"/>
<feGaussianBlur stdDeviation="6.16346"/>
<feComposite in2="hardAlpha" operator="out"/>
<feColorMatrix type="matrix" values="0 0 0 0 0.246026 0 0 0 0 0.221684 0 0 0 0 0.470833 0 0 0 0.1 0"/>
<feBlend mode="normal" in2="effect1_dropShadow_3780_7075" result="effect2_dropShadow_3780_7075"/>
<feBlend mode="normal" in="SourceGraphic" in2="effect2_dropShadow_3780_7075" result="shape"/>
<feColorMatrix in="SourceAlpha" type="matrix" values="0 0 0 0 0 0 0 0 0 0 0 0 0 0 0 0 0 0 127 0" result="hardAlpha"/>
<feOffset dy="4.93077"/>
<feGaussianBlur stdDeviation="30.8173"/>
<feComposite in2="hardAlpha" operator="arithmetic" k2="-1" k3="1"/>
<feColorMatrix type="matrix" values="0 0 0 0 1 0 0 0 0 1 0 0 0 0 1 0 0 0 1 0"/>
<feBlend mode="normal" in2="shape" result="effect3_innerShadow_3780_7075"/>
<feColorMatrix in="SourceAlpha" type="matrix" values="0 0 0 0 0 0 0 0 0 0 0 0 0 0 0 0 0 0 127 0" result="hardAlpha"/>
<feOffset dy="4.93077"/>
<feGaussianBlur stdDeviation="30.8173"/>
<feComposite in2="hardAlpha" operator="arithmetic" k2="-1" k3="1"/>
<feColorMatrix type="matrix" values="0 0 0 0 1 0 0 0 0 1 0 0 0 0 1 0 0 0 1 0"/>
<feBlend mode="normal" in2="effect3_innerShadow_3780_7075" result="effect4_innerShadow_3780_7075"/>
</filter>
<linearGradient id="paint0_linear_3780_7075" x1="639.081" y1="77.3125" x2="639.081" y2="655.618" gradientUnits="userSpaceOnUse">
<stop stop-color="#F3F3FB" style="stop-color:#F3F3FB;stop-color:color(display-p3 0.9547 0.9547 0.9833);stop-opacity:1;"/>
<stop offset="0.598958" stop-color="white" style="stop-color:white;stop-color:white;stop-opacity:1;"/>
<stop offset="0.765625" stop-color="white" style="stop-color:white;stop-color:white;stop-opacity:1;"/>
<stop offset="1" stop-color="#F1F1FF" style="stop-color:#F1F1FF;stop-color:color(display-p3 0.9458 0.9458 1.0000);stop-opacity:1;"/>
</linearGradient>
</defs>
</svg>
