<svg width="1310" height="1155" viewBox="0 0 1310 1155" fill="none" xmlns="http://www.w3.org/2000/svg">
<g filter="url(#filter0_f_3718_10150)">
<ellipse cx="654.141" cy="577.523" rx="384.868" ry="307.894" fill="#5E77FF" fill-opacity="0.12" style="fill:#5E77FF;fill:color(display-p3 0.3667 0.4680 1.0000);fill-opacity:0.12;"/>
</g>
<g filter="url(#filter1_ddii_3718_10150)">
<path d="M379.499 250.139C406.319 239.03 434.612 232.042 463.417 229.368C478.141 228 490.153 240.116 490.153 254.902V407.04C490.153 408.039 490.963 408.849 491.962 408.849V408.849C492.699 408.849 493.362 408.402 493.642 407.72C493.791 407.355 493.941 406.991 494.091 406.628C508.622 371.546 529.921 339.67 556.772 312.82C583.622 285.97 615.498 264.671 650.58 250.139C677.4 239.03 705.693 232.042 734.498 229.368C749.221 228 761.234 240.116 761.234 254.902V407.04C761.234 408.039 762.044 408.849 763.043 408.849V408.849C763.78 408.849 764.443 408.402 764.722 407.72C764.872 407.355 765.021 406.991 765.172 406.628C779.703 371.546 801.002 339.67 827.852 312.82C854.703 285.97 886.579 264.671 921.66 250.139C948.481 239.03 976.773 232.042 1005.58 229.368C1020.3 228 1032.31 240.116 1032.31 254.902V490.508C1032.31 505.295 1044.3 517.282 1059.09 517.282H1113.97C1128.76 517.282 1140.88 529.294 1139.51 544.017C1136.83 572.823 1129.85 601.115 1118.74 627.936C1104.2 663.017 1082.91 694.893 1056.06 721.744C1029.21 748.594 997.33 769.893 962.248 784.424C935.427 795.534 907.135 802.521 878.329 805.196C863.606 806.563 851.594 794.448 851.594 779.661V627.523C851.594 626.524 850.784 625.714 849.785 625.714V625.714C849.047 625.714 848.384 626.162 848.105 626.844C847.956 627.208 847.806 627.572 847.655 627.936C833.124 663.017 811.825 694.893 784.975 721.744C758.125 748.594 726.249 769.893 691.167 784.424C664.347 795.534 636.054 802.521 607.249 805.196C592.525 806.563 580.513 794.448 580.513 779.661V627.523C580.513 626.524 579.703 625.714 578.704 625.714V625.714C577.967 625.714 577.304 626.162 577.024 626.844C576.875 627.208 576.725 627.572 576.575 627.936C562.043 663.017 540.745 694.893 513.894 721.744C487.044 748.594 455.168 769.893 420.086 784.424C393.266 795.534 364.973 802.521 336.168 805.196C321.445 806.563 309.432 794.448 309.432 779.661V544.055C309.432 529.269 297.445 517.282 282.659 517.282H227.773C212.987 517.282 200.871 505.269 202.239 490.546C204.913 461.741 211.901 433.448 223.01 406.628C237.542 371.546 258.841 339.67 285.691 312.82C312.541 285.97 344.417 264.671 379.499 250.139Z" fill="url(#paint0_linear_3718_10150)" style=""/>
<path d="M380.78 253.231C407.29 242.25 435.255 235.344 463.727 232.7C476.28 231.534 486.806 241.872 486.806 254.902V407.04C486.806 409.888 489.115 412.196 491.962 412.196C494.066 412.196 495.948 410.92 496.739 408.988C496.821 408.786 496.904 408.585 496.987 408.383C497.052 408.225 497.118 408.067 497.183 407.908C511.546 373.233 532.598 341.726 559.138 315.186C585.678 288.647 617.185 267.594 651.86 253.231C678.37 242.25 706.336 235.344 734.808 232.7C747.361 231.534 757.887 241.872 757.887 254.902V407.04C757.887 409.888 760.195 412.196 763.043 412.196C765.147 412.196 767.028 410.92 767.819 408.988C767.877 408.848 767.934 408.707 767.992 408.567C768.082 408.347 768.173 408.128 768.264 407.908C782.627 373.233 803.679 341.726 830.219 315.186C856.758 288.647 888.265 267.594 922.941 253.231C949.451 242.25 977.416 235.344 1005.89 232.7C1018.44 231.534 1028.97 241.872 1028.97 254.902V490.508C1028.97 507.143 1042.45 520.628 1059.09 520.628H1113.97C1127 520.628 1137.34 531.154 1136.18 543.708C1133.53 572.18 1126.63 600.145 1115.64 626.655C1101.28 661.331 1080.23 692.838 1053.69 719.377C1027.15 745.917 995.643 766.969 960.967 781.332C934.457 792.313 906.492 799.22 878.02 801.864C865.466 803.029 854.94 792.692 854.94 779.661V627.523C854.94 624.676 852.632 622.367 849.785 622.367C847.681 622.367 845.799 623.644 845.008 625.576C844.861 625.936 844.712 626.296 844.563 626.655C830.2 661.331 809.148 692.838 782.609 719.377C756.069 745.917 724.562 766.969 689.886 781.332C663.376 792.313 635.411 799.22 606.939 801.864C594.385 803.029 583.86 792.692 583.86 779.661V627.523C583.86 624.676 581.551 622.367 578.704 622.367C576.6 622.367 574.718 623.644 573.927 625.576C573.78 625.936 573.632 626.296 573.483 626.655C559.119 661.331 538.067 692.838 511.528 719.377C484.988 745.917 453.481 766.969 418.806 781.332C392.296 792.313 364.33 799.22 335.858 801.864C323.305 803.029 312.779 792.692 312.779 779.661V544.055C312.779 527.42 299.294 513.935 282.659 513.935H227.773C214.743 513.935 204.405 503.409 205.571 490.856C208.215 462.384 215.121 434.419 226.102 407.908C240.465 373.233 261.518 341.726 288.057 315.186C314.597 288.647 346.104 267.594 380.78 253.231Z" stroke="#E8E8FF" stroke-opacity="0.4" style="stroke:#E8E8FF;stroke:color(display-p3 0.9102 0.9083 1.0000);stroke-opacity:0.4;" stroke-width="6.69335" style="mix-blend-mode:overlay"/>
</g>
<defs>
<filter id="filter0_f_3718_10150" x="0.321838" y="0.677795" width="1307.64" height="1153.69" filterUnits="userSpaceOnUse" color-interpolation-filters="sRGB">
<feFlood flood-opacity="0" result="BackgroundImageFix"/>
<feBlend mode="normal" in="SourceGraphic" in2="BackgroundImageFix" result="shape"/>
<feGaussianBlur stdDeviation="134.476" result="effect1_foregroundBlur_3718_10150"/>
</filter>
<filter id="filter1_ddii_3718_10150" x="32.0217" y="151.602" width="1277.7" height="916.262" filterUnits="userSpaceOnUse" color-interpolation-filters="sRGB">
<feFlood flood-opacity="0" result="BackgroundImageFix"/>
<feColorMatrix in="SourceAlpha" type="matrix" values="0 0 0 0 0 0 0 0 0 0 0 0 0 0 0 0 0 0 127 0" result="hardAlpha"/>
<feMorphology radius="19.7231" operator="dilate" in="SourceAlpha" result="effect1_dropShadow_3718_10150"/>
<feOffset dy="92.4519"/>
<feGaussianBlur stdDeviation="75.1942"/>
<feComposite in2="hardAlpha" operator="out"/>
<feColorMatrix type="matrix" values="0 0 0 0 0.246026 0 0 0 0 0.221684 0 0 0 0 0.470833 0 0 0 0.1 0"/>
<feBlend mode="normal" in2="BackgroundImageFix" result="effect1_dropShadow_3718_10150"/>
<feColorMatrix in="SourceAlpha" type="matrix" values="0 0 0 0 0 0 0 0 0 0 0 0 0 0 0 0 0 0 127 0" result="hardAlpha"/>
<feMorphology radius="2.46538" operator="dilate" in="SourceAlpha" result="effect2_dropShadow_3718_10150"/>
<feOffset dy="2.46538"/>
<feGaussianBlur stdDeviation="6.16346"/>
<feComposite in2="hardAlpha" operator="out"/>
<feColorMatrix type="matrix" values="0 0 0 0 0.246026 0 0 0 0 0.221684 0 0 0 0 0.470833 0 0 0 0.1 0"/>
<feBlend mode="normal" in2="effect1_dropShadow_3718_10150" result="effect2_dropShadow_3718_10150"/>
<feBlend mode="normal" in="SourceGraphic" in2="effect2_dropShadow_3718_10150" result="shape"/>
<feColorMatrix in="SourceAlpha" type="matrix" values="0 0 0 0 0 0 0 0 0 0 0 0 0 0 0 0 0 0 127 0" result="hardAlpha"/>
<feOffset dy="4.93077"/>
<feGaussianBlur stdDeviation="30.8173"/>
<feComposite in2="hardAlpha" operator="arithmetic" k2="-1" k3="1"/>
<feColorMatrix type="matrix" values="0 0 0 0 1 0 0 0 0 1 0 0 0 0 1 0 0 0 1 0"/>
<feBlend mode="normal" in2="shape" result="effect3_innerShadow_3718_10150"/>
<feColorMatrix in="SourceAlpha" type="matrix" values="0 0 0 0 0 0 0 0 0 0 0 0 0 0 0 0 0 0 127 0" result="hardAlpha"/>
<feOffset dy="4.93077"/>
<feGaussianBlur stdDeviation="30.8173"/>
<feComposite in2="hardAlpha" operator="arithmetic" k2="-1" k3="1"/>
<feColorMatrix type="matrix" values="0 0 0 0 1 0 0 0 0 1 0 0 0 0 1 0 0 0 1 0"/>
<feBlend mode="normal" in2="effect3_innerShadow_3718_10150" result="effect4_innerShadow_3718_10150"/>
</filter>
<linearGradient id="paint0_linear_3718_10150" x1="670.873" y1="228.129" x2="670.873" y2="806.435" gradientUnits="userSpaceOnUse">
<stop stop-color="#F3F3FB" style="stop-color:#F3F3FB;stop-color:color(display-p3 0.9547 0.9547 0.9833);stop-opacity:1;"/>
<stop offset="0.598958" stop-color="white" style="stop-color:white;stop-color:white;stop-opacity:1;"/>
<stop offset="0.765625" stop-color="white" style="stop-color:white;stop-color:white;stop-opacity:1;"/>
<stop offset="1" stop-color="#F1F1FF" style="stop-color:#F1F1FF;stop-color:color(display-p3 0.9458 0.9458 1.0000);stop-opacity:1;"/>
</linearGradient>
</defs>
</svg>
