<svg width="1309" height="1155" viewBox="0 0 1309 1155" fill="none" xmlns="http://www.w3.org/2000/svg">
<g filter="url(#filter0_f_3718_10144)">
<ellipse cx="654.367" cy="577.705" rx="384.868" ry="307.894" fill="#5E77FF" fill-opacity="0.12" style="fill:#5E77FF;fill:color(display-p3 0.3667 0.4680 1.0000);fill-opacity:0.12;"/>
</g>
<g filter="url(#filter1_ddii_3718_10144)">
<path d="M412.495 218.487C440.418 210.546 469.328 206.87 498.25 207.537C513.033 207.878 523.567 221.298 521.86 235.986L504.306 387.108C504.191 388.1 504.902 388.998 505.894 389.114V389.114C506.627 389.199 507.337 388.831 507.693 388.185C507.883 387.841 508.074 387.496 508.266 387.152C526.748 353.982 551.582 324.776 581.352 301.204C611.121 277.631 645.241 260.152 681.765 249.766C709.689 241.825 738.598 238.149 767.52 238.816C782.303 239.157 792.837 252.577 791.131 267.265L773.576 418.387C773.461 419.379 774.172 420.277 775.164 420.393V420.393C775.897 420.478 776.607 420.11 776.963 419.464C777.153 419.119 777.344 418.775 777.536 418.431C796.018 385.261 820.852 356.055 850.622 332.482C880.391 308.91 914.511 291.431 951.035 281.045C978.959 273.104 1007.87 269.428 1036.79 270.095C1051.57 270.435 1062.11 283.856 1060.4 298.544L1033.22 532.576C1031.51 547.264 1042.03 560.554 1056.72 562.26L1111.24 568.593C1125.93 570.299 1136.58 583.629 1133.52 598.096C1127.54 626.401 1117.33 653.698 1103.2 679.057C1084.72 712.228 1059.89 741.434 1030.12 765.006C1000.35 788.579 966.227 806.058 929.703 816.444C901.78 824.385 872.87 828.061 843.948 827.394C829.166 827.053 818.632 813.633 820.338 798.945L837.892 647.823C838.008 646.831 837.296 645.933 836.304 645.817V645.817C835.572 645.732 834.861 646.1 834.505 646.746C834.315 647.09 834.124 647.435 833.932 647.779C815.45 680.949 790.616 710.155 760.847 733.728C731.077 757.3 696.957 774.779 660.433 785.165C632.51 793.106 603.6 796.782 574.678 796.115C559.895 795.775 549.361 782.354 551.068 767.666L568.622 616.544C568.737 615.552 568.026 614.654 567.034 614.539V614.539C566.301 614.454 565.591 614.822 565.235 615.467C565.045 615.812 564.854 616.156 564.662 616.5C546.18 649.67 521.346 678.876 491.576 702.449C461.807 726.021 427.687 743.5 391.163 753.886C363.239 761.827 334.33 765.503 305.408 764.836C290.625 764.496 280.091 751.075 281.797 736.387L308.983 502.355C310.689 487.667 300.165 474.377 285.478 472.671L230.959 466.338C216.271 464.632 205.623 451.302 208.679 436.835C214.66 408.531 224.866 381.233 238.995 355.874C257.478 322.703 282.312 293.498 312.081 269.925C341.85 246.352 375.971 228.873 412.495 218.487Z" fill="url(#paint0_linear_3718_10144)" style=""/>
<path d="M413.411 221.706C441.011 213.857 469.586 210.224 498.173 210.883C510.777 211.173 520.04 222.656 518.536 235.6L500.982 386.722C500.653 389.55 502.68 392.109 505.508 392.438C507.598 392.681 509.614 391.63 510.623 389.802C510.728 389.612 510.834 389.421 510.94 389.23C511.023 389.081 511.106 388.931 511.189 388.781C529.457 355.995 554.004 327.127 583.429 303.827C612.854 280.527 646.579 263.251 682.681 252.985C710.281 245.136 738.856 241.503 767.443 242.162C780.047 242.452 789.31 253.935 787.806 266.879L770.252 418.001C769.923 420.829 771.95 423.388 774.778 423.717C776.868 423.96 778.884 422.909 779.893 421.081C779.966 420.949 780.04 420.816 780.113 420.683C780.228 420.475 780.344 420.268 780.46 420.06C798.727 387.274 823.275 358.406 852.699 335.106C882.124 311.806 915.849 294.53 951.951 284.264C979.551 276.415 1008.13 272.781 1036.71 273.44C1049.32 273.731 1058.58 285.214 1057.08 298.158L1029.89 532.19C1027.97 548.714 1039.81 563.665 1056.33 565.584L1110.85 571.917C1123.8 573.421 1132.85 585.069 1130.24 597.404C1124.33 625.381 1114.25 652.363 1100.28 677.429C1082.01 710.215 1057.46 739.083 1028.04 762.383C998.615 785.683 964.889 802.959 928.788 813.225C901.188 821.074 872.612 824.707 844.025 824.048C831.421 823.758 822.158 812.275 823.662 799.331L841.217 648.209C841.545 645.381 839.519 642.822 836.69 642.493C834.6 642.25 832.584 643.301 831.575 645.129C831.387 645.469 831.198 645.81 831.009 646.15C812.741 678.936 788.194 707.804 758.769 731.104C729.344 754.404 695.619 771.68 659.517 781.946C631.917 789.795 603.342 793.428 574.755 792.769C562.151 792.479 552.888 780.996 554.392 768.052L571.946 616.931C572.275 614.102 570.248 611.543 567.42 611.214C565.33 610.971 563.314 612.022 562.305 613.85C562.117 614.19 561.928 614.531 561.739 614.871C543.47 647.658 518.923 676.525 489.499 699.825C460.074 723.125 426.349 740.401 390.247 750.667C362.647 758.516 334.072 762.15 305.485 761.491C292.881 761.2 283.618 749.717 285.122 736.773L312.307 502.741C314.227 486.217 302.388 471.266 285.864 469.347L231.345 463.014C218.401 461.51 209.347 449.862 211.954 437.527C217.865 409.55 227.953 382.569 241.919 357.503C260.187 324.716 284.734 295.848 314.159 272.548C343.584 249.248 377.309 231.972 413.411 221.706Z" stroke="#E8E8FF" stroke-opacity="0.4" style="stroke:#E8E8FF;stroke:color(display-p3 0.9102 0.9083 1.0000);stroke-opacity:0.4;" stroke-width="6.69335" style="mix-blend-mode:overlay"/>
</g>
<defs>
<filter id="filter0_f_3718_10144" x="0.547668" y="0.859436" width="1307.64" height="1153.69" filterUnits="userSpaceOnUse" color-interpolation-filters="sRGB">
<feFlood flood-opacity="0" result="BackgroundImageFix"/>
<feBlend mode="normal" in="SourceGraphic" in2="BackgroundImageFix" result="shape"/>
<feGaussianBlur stdDeviation="134.476" result="effect1_foregroundBlur_3718_10144"/>
</filter>
<filter id="filter1_ddii_3718_10144" x="38.0423" y="129.801" width="1266.11" height="960.233" filterUnits="userSpaceOnUse" color-interpolation-filters="sRGB">
<feFlood flood-opacity="0" result="BackgroundImageFix"/>
<feColorMatrix in="SourceAlpha" type="matrix" values="0 0 0 0 0 0 0 0 0 0 0 0 0 0 0 0 0 0 127 0" result="hardAlpha"/>
<feMorphology radius="19.7231" operator="dilate" in="SourceAlpha" result="effect1_dropShadow_3718_10144"/>
<feOffset dy="92.4519"/>
<feGaussianBlur stdDeviation="75.1942"/>
<feComposite in2="hardAlpha" operator="out"/>
<feColorMatrix type="matrix" values="0 0 0 0 0.246026 0 0 0 0 0.221684 0 0 0 0 0.470833 0 0 0 0.1 0"/>
<feBlend mode="normal" in2="BackgroundImageFix" result="effect1_dropShadow_3718_10144"/>
<feColorMatrix in="SourceAlpha" type="matrix" values="0 0 0 0 0 0 0 0 0 0 0 0 0 0 0 0 0 0 127 0" result="hardAlpha"/>
<feMorphology radius="2.46538" operator="dilate" in="SourceAlpha" result="effect2_dropShadow_3718_10144"/>
<feOffset dy="2.46538"/>
<feGaussianBlur stdDeviation="6.16346"/>
<feComposite in2="hardAlpha" operator="out"/>
<feColorMatrix type="matrix" values="0 0 0 0 0.246026 0 0 0 0 0.221684 0 0 0 0 0.470833 0 0 0 0.1 0"/>
<feBlend mode="normal" in2="effect1_dropShadow_3718_10144" result="effect2_dropShadow_3718_10144"/>
<feBlend mode="normal" in="SourceGraphic" in2="effect2_dropShadow_3718_10144" result="shape"/>
<feColorMatrix in="SourceAlpha" type="matrix" values="0 0 0 0 0 0 0 0 0 0 0 0 0 0 0 0 0 0 127 0" result="hardAlpha"/>
<feOffset dy="4.93077"/>
<feGaussianBlur stdDeviation="30.8173"/>
<feComposite in2="hardAlpha" operator="arithmetic" k2="-1" k3="1"/>
<feColorMatrix type="matrix" values="0 0 0 0 1 0 0 0 0 1 0 0 0 0 1 0 0 0 1 0"/>
<feBlend mode="normal" in2="shape" result="effect3_innerShadow_3718_10144"/>
<feColorMatrix in="SourceAlpha" type="matrix" values="0 0 0 0 0 0 0 0 0 0 0 0 0 0 0 0 0 0 127 0" result="hardAlpha"/>
<feOffset dy="4.93077"/>
<feGaussianBlur stdDeviation="30.8173"/>
<feComposite in2="hardAlpha" operator="arithmetic" k2="-1" k3="1"/>
<feColorMatrix type="matrix" values="0 0 0 0 1 0 0 0 0 1 0 0 0 0 1 0 0 0 1 0"/>
<feBlend mode="normal" in2="effect3_innerShadow_3718_10144" result="effect4_innerShadow_3718_10144"/>
</filter>
<linearGradient id="paint0_linear_3718_10144" x1="704.463" y1="230.244" x2="637.735" y2="804.687" gradientUnits="userSpaceOnUse">
<stop stop-color="#F3F3FB" style="stop-color:#F3F3FB;stop-color:color(display-p3 0.9547 0.9547 0.9833);stop-opacity:1;"/>
<stop offset="0.598958" stop-color="white" style="stop-color:white;stop-color:white;stop-opacity:1;"/>
<stop offset="0.765625" stop-color="white" style="stop-color:white;stop-color:white;stop-opacity:1;"/>
<stop offset="1" stop-color="#F1F1FF" style="stop-color:#F1F1FF;stop-color:color(display-p3 0.9458 0.9458 1.0000);stop-opacity:1;"/>
</linearGradient>
</defs>
</svg>
