<svg width="1113" height="918" viewBox="0 0 1113 918" fill="none" xmlns="http://www.w3.org/2000/svg">
<g filter="url(#filter0_ddii_3718_10147)">
<path d="M371.403 71.6554C400.927 68.3583 430.764 70.1444 459.625 76.9034C466.823 78.5892 470.91 86.0473 468.856 93.1496L427.846 234.973C427.596 235.837 428.094 236.739 428.958 236.989V236.989C429.595 237.174 430.28 236.952 430.693 236.432C430.913 236.155 431.133 235.878 431.354 235.601C452.688 208.903 479.072 186.668 508.999 170.167C538.926 153.665 571.81 143.22 605.774 139.427C635.298 136.13 665.135 137.916 693.996 144.675C701.194 146.361 705.281 153.819 703.227 160.921L662.217 302.744C661.967 303.608 662.465 304.511 663.329 304.761V304.761C663.966 304.945 664.651 304.724 665.063 304.204C665.283 303.926 665.504 303.649 665.725 303.372C687.059 276.674 713.443 254.44 743.37 237.938C773.297 221.437 806.181 210.991 840.145 207.199C869.669 203.902 899.506 205.688 928.367 212.447C935.565 214.132 939.652 221.591 937.598 228.693L872.745 452.969C870.692 460.071 874.784 467.493 881.887 469.547L949.915 489.218C957.018 491.272 961.144 498.709 958.727 505.696C949.04 533.71 934.626 559.896 916.081 583.104C894.747 609.801 868.364 632.036 838.437 648.537C808.51 665.039 775.626 675.484 741.662 679.277C712.138 682.574 682.301 680.788 653.44 674.029C646.241 672.343 642.155 664.885 644.209 657.783L685.219 515.96C685.468 515.096 684.971 514.193 684.107 513.943V513.943C683.469 513.759 682.784 513.98 682.372 514.5C682.152 514.778 681.932 515.055 681.71 515.332C660.376 542.03 633.993 564.264 604.066 580.766C574.139 597.267 541.255 607.713 507.291 611.506C477.767 614.803 447.93 613.017 419.069 606.258C411.871 604.572 407.784 597.114 409.838 590.011L450.848 448.188C451.098 447.324 450.6 446.422 449.736 446.172V446.172C449.099 445.987 448.413 446.209 448.001 446.729C447.781 447.006 447.561 447.283 447.34 447.56C426.006 474.258 399.622 496.493 369.695 512.994C339.768 529.496 306.884 539.941 272.92 543.734C243.396 547.031 213.559 545.245 184.698 538.486C177.5 536.8 173.413 529.342 175.467 522.24L240.319 297.964C242.373 290.862 238.28 283.439 231.178 281.386L163.149 261.714C156.047 259.66 151.921 252.224 154.337 245.237C164.025 217.223 178.438 191.037 196.983 167.829C218.318 141.131 244.701 118.897 274.628 102.395C304.555 85.8937 337.439 75.4483 371.403 71.6554Z" fill="url(#paint0_linear_3718_10147)" style=""/>
<path d="M679.357 513.452C658.27 539.841 632.192 561.818 602.611 578.128C573.031 594.439 540.527 604.763 506.957 608.512C477.775 611.771 448.283 610.006 419.756 603.325C414.336 602.056 411.127 596.394 412.731 590.848L453.741 449.025C454.453 446.563 453.035 443.99 450.573 443.278C448.754 442.752 446.808 443.385 445.641 444.858C445.423 445.132 445.205 445.406 444.986 445.68C423.899 472.069 397.821 494.046 368.241 510.357C338.66 526.667 306.157 536.992 272.586 540.741C243.404 543.999 213.912 542.234 185.385 535.553C179.965 534.284 176.757 528.623 178.36 523.077L243.213 298.801C245.729 290.1 240.715 281.008 232.015 278.492L163.986 258.821C158.44 257.217 155.365 251.482 157.184 246.221C166.759 218.531 181.006 192.649 199.337 169.709C220.424 143.32 246.502 121.343 276.083 105.033C305.663 88.7223 338.167 78.3978 371.737 74.6488C400.919 71.3899 430.411 73.1553 458.938 79.836L679.357 513.452ZM679.357 513.452C679.576 513.178 679.794 512.904 680.012 512.629C681.179 511.157 683.125 510.524 684.944 511.05C687.405 511.762 688.824 514.335 688.112 516.797L647.102 658.62C645.498 664.166 648.707 669.827 654.127 671.097C682.654 677.777 712.145 679.543 741.328 676.284C774.898 672.535 807.402 662.21 836.982 645.9C866.563 629.589 892.641 607.612 913.728 581.223C932.059 558.284 946.306 532.401 955.881 504.712C957.7 499.451 954.625 493.716 949.079 492.112L881.05 472.441C872.35 469.925 867.336 460.832 869.852 452.132L934.704 227.856C936.308 222.31 933.1 216.649 927.68 215.379C899.153 208.698 869.661 206.933 840.479 210.192C806.908 213.941 774.405 224.265 744.824 240.576C715.244 256.886 689.165 278.864 668.078 305.253M679.357 513.452L668.078 305.253M668.078 305.253C667.86 305.526 667.641 305.8 667.424 306.075C666.257 307.547 664.311 308.18 662.492 307.654C660.03 306.942 658.612 304.37 659.324 301.908L700.334 160.085C701.937 154.538 698.729 148.877 693.309 147.608C664.782 140.927 635.29 139.162 606.108 142.42C572.537 146.169 540.034 156.494 510.453 172.804C480.873 189.115 454.795 211.092 433.708 237.481C433.708 237.481 433.707 237.481 433.707 237.481L431.354 235.601L668.078 305.253Z" stroke="#E8E8FF" stroke-opacity="0.4" style="stroke:#E8E8FF;stroke:color(display-p3 0.9102 0.9083 1.0000);stroke-opacity:0.4;" stroke-width="6.02402" style="mix-blend-mode:overlay"/>
</g>
<defs>
<filter id="filter0_ddii_3718_10147" x="0.543282" y="0.153214" width="1111.98" height="917.039" filterUnits="userSpaceOnUse" color-interpolation-filters="sRGB">
<feFlood flood-opacity="0" result="BackgroundImageFix"/>
<feColorMatrix in="SourceAlpha" type="matrix" values="0 0 0 0 0 0 0 0 0 0 0 0 0 0 0 0 0 0 127 0" result="hardAlpha"/>
<feMorphology radius="17.7508" operator="dilate" in="SourceAlpha" result="effect1_dropShadow_3718_10147"/>
<feOffset dy="83.2067"/>
<feGaussianBlur stdDeviation="67.6748"/>
<feComposite in2="hardAlpha" operator="out"/>
<feColorMatrix type="matrix" values="0 0 0 0 0.246026 0 0 0 0 0.221684 0 0 0 0 0.470833 0 0 0 0.1 0"/>
<feBlend mode="normal" in2="BackgroundImageFix" result="effect1_dropShadow_3718_10147"/>
<feColorMatrix in="SourceAlpha" type="matrix" values="0 0 0 0 0 0 0 0 0 0 0 0 0 0 0 0 0 0 127 0" result="hardAlpha"/>
<feMorphology radius="2.21885" operator="dilate" in="SourceAlpha" result="effect2_dropShadow_3718_10147"/>
<feOffset dy="2.21885"/>
<feGaussianBlur stdDeviation="5.54712"/>
<feComposite in2="hardAlpha" operator="out"/>
<feColorMatrix type="matrix" values="0 0 0 0 0.246026 0 0 0 0 0.221684 0 0 0 0 0.470833 0 0 0 0.1 0"/>
<feBlend mode="normal" in2="effect1_dropShadow_3718_10147" result="effect2_dropShadow_3718_10147"/>
<feBlend mode="normal" in="SourceGraphic" in2="effect2_dropShadow_3718_10147" result="shape"/>
<feColorMatrix in="SourceAlpha" type="matrix" values="0 0 0 0 0 0 0 0 0 0 0 0 0 0 0 0 0 0 127 0" result="hardAlpha"/>
<feOffset dy="4.43769"/>
<feGaussianBlur stdDeviation="27.7356"/>
<feComposite in2="hardAlpha" operator="arithmetic" k2="-1" k3="1"/>
<feColorMatrix type="matrix" values="0 0 0 0 1 0 0 0 0 1 0 0 0 0 1 0 0 0 1 0"/>
<feBlend mode="normal" in2="shape" result="effect3_innerShadow_3718_10147"/>
<feColorMatrix in="SourceAlpha" type="matrix" values="0 0 0 0 0 0 0 0 0 0 0 0 0 0 0 0 0 0 127 0" result="hardAlpha"/>
<feOffset dy="4.43769"/>
<feGaussianBlur stdDeviation="27.7356"/>
<feComposite in2="hardAlpha" operator="arithmetic" k2="-1" k3="1"/>
<feColorMatrix type="matrix" values="0 0 0 0 1 0 0 0 0 1 0 0 0 0 1 0 0 0 1 0"/>
<feBlend mode="normal" in2="effect3_innerShadow_3718_10147" result="effect4_innerShadow_3718_10147"/>
</filter>
<linearGradient id="paint0_linear_3718_10147" x1="628.822" y1="125.471" x2="484.243" y2="625.462" gradientUnits="userSpaceOnUse">
<stop stop-color="#F3F3FB" style="stop-color:#F3F3FB;stop-color:color(display-p3 0.9547 0.9547 0.9833);stop-opacity:1;"/>
<stop offset="0.598958" stop-color="white" style="stop-color:white;stop-color:white;stop-opacity:1;"/>
<stop offset="0.765625" stop-color="white" style="stop-color:white;stop-color:white;stop-opacity:1;"/>
<stop offset="1" stop-color="#F1F1FF" style="stop-color:#F1F1FF;stop-color:color(display-p3 0.9458 0.9458 1.0000);stop-opacity:1;"/>
</linearGradient>
</defs>
</svg>
