<svg width="1152" height="827" viewBox="0 0 1152 827" fill="none" xmlns="http://www.w3.org/2000/svg">
<g filter="url(#filter0_ddii_3718_10153)">
<path d="M313.649 89.8543C341.095 78.4857 370.254 71.9132 399.857 70.3891C407.24 70.009 413.238 76.0384 413.238 83.4316V231.065C413.238 231.964 413.967 232.693 414.866 232.693V232.693C415.529 232.693 416.126 232.291 416.377 231.677C416.512 231.349 416.647 231.021 416.782 230.694C429.86 199.12 449.029 170.432 473.195 146.267C497.36 122.101 526.048 102.932 557.622 89.8543C585.068 78.4857 614.227 71.9132 643.829 70.3891C651.213 70.009 657.21 76.0384 657.21 83.4316V231.065C657.21 231.964 657.939 232.693 658.839 232.693V232.693C659.502 232.693 660.099 232.291 660.35 231.677C660.484 231.349 660.619 231.021 660.755 230.694C673.833 199.12 693.002 170.432 717.167 146.267C741.332 122.101 770.021 102.932 801.594 89.8543C829.04 78.4857 858.199 71.9132 887.802 70.3891C895.185 70.009 901.183 76.0383 901.183 83.4316V316.896C901.183 324.289 907.176 330.282 914.57 330.282H985.385C992.779 330.282 998.808 336.28 998.428 343.663C996.904 373.266 990.331 402.425 978.963 429.871C965.884 461.444 946.716 490.133 922.55 514.298C898.385 538.463 869.697 557.632 838.123 570.711C810.677 582.079 781.518 588.652 751.915 590.176C744.532 590.556 738.535 584.527 738.535 577.133V429.5C738.535 428.6 737.806 427.871 736.906 427.871V427.871C736.243 427.871 735.646 428.274 735.395 428.888C735.26 429.216 735.125 429.544 734.99 429.871C721.912 461.444 702.743 490.133 678.578 514.298C654.412 538.463 625.724 557.632 594.15 570.711C566.704 582.079 537.545 588.652 507.943 590.176C500.559 590.556 494.562 584.527 494.562 577.133V429.5C494.562 428.6 493.833 427.871 492.934 427.871V427.871C492.27 427.871 491.673 428.274 491.422 428.888C491.288 429.216 491.153 429.544 491.017 429.871C477.939 461.444 458.77 490.133 434.605 514.298C410.439 538.463 381.751 557.632 350.178 570.711C322.732 582.079 293.573 588.652 263.97 590.176C256.587 590.556 250.589 584.527 250.589 577.133V343.669C250.589 336.276 244.596 330.282 237.202 330.282H166.387C158.993 330.282 152.964 324.285 153.344 316.901C154.868 287.299 161.441 258.14 172.809 230.694C185.888 199.12 205.057 170.432 229.222 146.267C253.387 122.101 282.075 102.932 313.649 89.8543Z" fill="url(#paint0_linear_3718_10153)" style=""/>
<path d="M732.207 428.719C719.28 459.926 700.333 488.283 676.448 512.168C652.562 536.054 624.206 555.001 592.998 567.928C565.869 579.165 537.048 585.661 507.788 587.168C502.229 587.454 497.574 582.907 497.574 577.133V429.5C497.574 426.937 495.496 424.859 492.934 424.859C491.04 424.859 489.347 426.008 488.635 427.747C488.502 428.071 488.368 428.395 488.234 428.719C475.307 459.927 456.361 488.283 432.475 512.168C408.589 536.054 380.233 555.001 349.025 567.928C321.897 579.165 293.075 585.661 263.815 587.168C258.256 587.454 253.601 582.907 253.601 577.133V343.669C253.601 334.612 246.259 327.27 237.202 327.27H166.387C160.613 327.27 156.066 322.615 156.352 317.056C157.859 287.796 164.355 258.975 175.592 231.846C188.519 200.639 207.466 172.282 231.352 148.397C255.237 124.511 283.593 105.564 314.802 92.637C341.93 81.4001 370.751 74.9036 400.011 73.3972L732.207 428.719ZM732.207 428.719C732.341 428.395 732.475 428.071 732.607 427.747C733.319 426.008 735.013 424.859 736.906 424.859C739.469 424.859 741.547 426.937 741.547 429.5V577.133C741.547 582.907 746.202 587.454 751.761 587.168C781.021 585.661 809.842 579.165 836.97 567.928C868.179 555.001 896.535 536.054 920.42 512.168C944.306 488.283 963.253 459.926 976.18 428.718C987.417 401.59 993.913 372.769 995.42 343.509C995.706 337.95 991.159 333.294 985.385 333.294H914.57C905.513 333.294 898.171 325.952 898.171 316.896V83.4316C898.171 77.6583 893.516 73.111 887.957 73.3972C858.697 74.9036 829.875 81.4001 802.747 92.637C771.539 105.564 743.182 124.511 719.297 148.397C695.411 172.282 676.464 200.639 663.538 231.846M732.207 428.719L663.538 231.846M663.538 231.846C663.404 232.17 663.27 232.494 663.137 232.818C662.425 234.557 660.732 235.705 658.839 235.705C656.276 235.705 654.198 233.628 654.198 231.065V83.4316C654.198 77.6583 649.543 73.111 643.984 73.3972C614.724 74.9036 585.903 81.4001 558.774 92.637C527.566 105.564 499.21 124.511 475.324 148.397C451.439 172.282 432.492 200.638 419.565 231.846C419.565 231.846 419.565 231.846 419.565 231.846L416.782 230.694L663.538 231.846Z" stroke="#E8E8FF" stroke-opacity="0.4" style="stroke:#E8E8FF;stroke:color(display-p3 0.9102 0.9083 1.0000);stroke-opacity:0.4;" stroke-width="6.02402" style="mix-blend-mode:overlay"/>
</g>
<defs>
<filter id="filter0_ddii_3718_10153" x="0.226753" y="0.479385" width="1151.32" height="826.021" filterUnits="userSpaceOnUse" color-interpolation-filters="sRGB">
<feFlood flood-opacity="0" result="BackgroundImageFix"/>
<feColorMatrix in="SourceAlpha" type="matrix" values="0 0 0 0 0 0 0 0 0 0 0 0 0 0 0 0 0 0 127 0" result="hardAlpha"/>
<feMorphology radius="17.7508" operator="dilate" in="SourceAlpha" result="effect1_dropShadow_3718_10153"/>
<feOffset dy="83.2067"/>
<feGaussianBlur stdDeviation="67.6748"/>
<feComposite in2="hardAlpha" operator="out"/>
<feColorMatrix type="matrix" values="0 0 0 0 0.246026 0 0 0 0 0.221684 0 0 0 0 0.470833 0 0 0 0.1 0"/>
<feBlend mode="normal" in2="BackgroundImageFix" result="effect1_dropShadow_3718_10153"/>
<feColorMatrix in="SourceAlpha" type="matrix" values="0 0 0 0 0 0 0 0 0 0 0 0 0 0 0 0 0 0 127 0" result="hardAlpha"/>
<feMorphology radius="2.21885" operator="dilate" in="SourceAlpha" result="effect2_dropShadow_3718_10153"/>
<feOffset dy="2.21885"/>
<feGaussianBlur stdDeviation="5.54712"/>
<feComposite in2="hardAlpha" operator="out"/>
<feColorMatrix type="matrix" values="0 0 0 0 0.246026 0 0 0 0 0.221684 0 0 0 0 0.470833 0 0 0 0.1 0"/>
<feBlend mode="normal" in2="effect1_dropShadow_3718_10153" result="effect2_dropShadow_3718_10153"/>
<feBlend mode="normal" in="SourceGraphic" in2="effect2_dropShadow_3718_10153" result="shape"/>
<feColorMatrix in="SourceAlpha" type="matrix" values="0 0 0 0 0 0 0 0 0 0 0 0 0 0 0 0 0 0 127 0" result="hardAlpha"/>
<feOffset dy="4.43769"/>
<feGaussianBlur stdDeviation="27.7356"/>
<feComposite in2="hardAlpha" operator="arithmetic" k2="-1" k3="1"/>
<feColorMatrix type="matrix" values="0 0 0 0 1 0 0 0 0 1 0 0 0 0 1 0 0 0 1 0"/>
<feBlend mode="normal" in2="shape" result="effect3_innerShadow_3718_10153"/>
<feColorMatrix in="SourceAlpha" type="matrix" values="0 0 0 0 0 0 0 0 0 0 0 0 0 0 0 0 0 0 127 0" result="hardAlpha"/>
<feOffset dy="4.43769"/>
<feGaussianBlur stdDeviation="27.7356"/>
<feComposite in2="hardAlpha" operator="arithmetic" k2="-1" k3="1"/>
<feColorMatrix type="matrix" values="0 0 0 0 1 0 0 0 0 1 0 0 0 0 1 0 0 0 1 0"/>
<feBlend mode="normal" in2="effect3_innerShadow_3718_10153" result="effect4_innerShadow_3718_10153"/>
</filter>
<linearGradient id="paint0_linear_3718_10153" x1="575.886" y1="70.0449" x2="575.886" y2="590.52" gradientUnits="userSpaceOnUse">
<stop stop-color="#F3F3FB" style="stop-color:#F3F3FB;stop-color:color(display-p3 0.9547 0.9547 0.9833);stop-opacity:1;"/>
<stop offset="0.598958" stop-color="white" style="stop-color:white;stop-color:white;stop-opacity:1;"/>
<stop offset="0.765625" stop-color="white" style="stop-color:white;stop-color:white;stop-opacity:1;"/>
<stop offset="1" stop-color="#F1F1FF" style="stop-color:#F1F1FF;stop-color:color(display-p3 0.9458 0.9458 1.0000);stop-opacity:1;"/>
</linearGradient>
</defs>
</svg>
