<svg width="390" height="240" viewBox="0 0 390 240" fill="none" xmlns="http://www.w3.org/2000/svg">
<path d="M74.078 9.13445C88.6371 3.10387 104.241 0 120 0V75H121.257C121.382 74.6922 121.507 74.3849 121.634 74.078C127.665 59.5189 136.504 46.2902 147.647 35.1472C158.79 24.0042 172.019 15.165 186.578 9.13445C201.137 3.10387 216.741 0 232.5 0V75H233.757C233.882 74.6922 234.007 74.3849 234.134 74.078C240.165 59.5189 249.004 46.2902 260.147 35.1472C271.29 24.0042 284.519 15.165 299.078 9.13445C313.637 3.10387 329.241 0 345 0V120H390C390 135.759 386.896 151.363 380.866 165.922C374.835 180.481 365.996 193.71 354.853 204.853C343.71 215.996 330.481 224.835 315.922 230.866C301.363 236.896 285.759 240 270 240V165H268.743C268.618 165.308 268.493 165.615 268.366 165.922C262.335 180.481 253.496 193.71 242.353 204.853C231.21 215.996 217.981 224.835 203.422 230.866C188.863 236.896 173.259 240 157.5 240V165H156.243C156.118 165.308 155.993 165.615 155.866 165.922C149.835 180.481 140.996 193.71 129.853 204.853C118.71 215.996 105.481 224.835 90.922 230.866C76.3629 236.896 60.7586 240 45 240V120H0C0 104.241 3.10387 88.6371 9.13445 74.078C15.165 59.5189 24.0042 46.2902 35.1472 35.1472C46.2902 24.0042 59.5189 15.165 74.078 9.13445Z" fill="#1F1F1F"/>
</svg>
